HIERARCHY
ROOT root
{
	OFFSET	0	260	24
	CHANNELS 6  Xposition Yposition Zposition Xrotation Yrotation Zrotation
	JOINT spine_3
	{
		OFFSET	0	81.6	10.2
		CHANNELS 3  Xrotation Yrotation Zrotation
		JOINT spine_4
		{
			OFFSET	0	110.4	14.6
			CHANNELS 3  Xrotation Yrotation Zrotation
			JOINT neck_1
			{
				OFFSET	0	71.8	-50.3
				CHANNELS 3  Xrotation Yrotation Zrotation
				JOINT neck_2
				{
					OFFSET	0	86.2	-25.8
					CHANNELS 3  Xrotation Yrotation Zrotation
					JOINT head_ee
					{
						OFFSET	0	179.8	-8.7
						CHANNELS 3  Xrotation Yrotation Zrotation
						End Site
						{
							OFFSET	1	0	0
						}
					}
				}
			}
			JOINT left_clavicle
			{
				OFFSET	-43.2	22.4	-70.8
				CHANNELS 3  Xrotation Yrotation Zrotation
				JOINT left_shoulder
				{
					OFFSET	-93.9	-5.79999	48.7
					CHANNELS 3  Xrotation Yrotation Zrotation
					JOINT left_elbow
					{
						OFFSET	-291.4	-30.8	15.2
						CHANNELS 3  Xrotation Yrotation Zrotation
						JOINT left_lowarm_twist
						{
							OFFSET	-110.7	-3.89999	13.6
							CHANNELS 3  Xrotation Yrotation Zrotation
							JOINT left_hand
							{
								OFFSET	-110.7	-3.89999	13.6
								CHANNELS 3  Xrotation Yrotation Zrotation
								JOINT left_ee
								{
									OFFSET	-80.8	-5.10001	12.1
									CHANNELS 3  Xrotation Yrotation Zrotation
									End Site
									{
										OFFSET	1	0	0
									}
								}
							}
						}
					}
				}
			}
			JOINT right_clavicle
			{
				OFFSET	43.2	22.4	-70.8
				CHANNELS 3  Xrotation Yrotation Zrotation
				JOINT right_shoulder
				{
					OFFSET	93.9	-5.79999	48.7
					CHANNELS 3  Xrotation Yrotation Zrotation
					JOINT right_elbow
					{
						OFFSET	291.4	-30.8	15.2
						CHANNELS 3  Xrotation Yrotation Zrotation
						JOINT right_lowarm_twist
						{
							OFFSET	110.7	-3.89999	13.6
							CHANNELS 3  Xrotation Yrotation Zrotation
							JOINT right_hand
							{
								OFFSET	110.7	-3.89999	13.6
								CHANNELS 3  Xrotation Yrotation Zrotation
								JOINT right_ee
								{
									OFFSET	80.8	-5.10001	12.1
									CHANNELS 3  Xrotation Yrotation Zrotation
									End Site
									{
										OFFSET	1	0	0
									}
								}
							}
						}
					}
				}
			}
		}
	}
	JOINT spine_2
	{
		OFFSET	0	-124.9	-9.1
		CHANNELS 3  Xrotation Yrotation Zrotation
		JOINT spine_1
		{
			OFFSET	0	-112	10
			CHANNELS 3  Xrotation Yrotation Zrotation
			JOINT left_hip
			{
				OFFSET	-82.8	-137.5	0.300001
				CHANNELS 3  Xrotation Yrotation Zrotation
				JOINT left_knee
				{
					OFFSET	-28.2	-396.7	2.2
					CHANNELS 3  Xrotation Yrotation Zrotation
					JOINT left_ankle
					{
						OFFSET	-11.7	-411.3	35.4
						CHANNELS 3  Xrotation Yrotation Zrotation
						JOINT left_toes
						{
							OFFSET	0	-60	-88.6
							CHANNELS 3  Xrotation Yrotation Zrotation
							JOINT left_foot_ee
							{
								OFFSET	-22.5	-16.5	-42.2
								CHANNELS 3  Xrotation Yrotation Zrotation
								End Site
								{
									OFFSET	1	0	0
								}
							}
						}
					}
				}
			}
			JOINT right_hip
			{
				OFFSET	82.8	-137.5	0.300001
				CHANNELS 3  Xrotation Yrotation Zrotation
				JOINT right_knee
				{
					OFFSET	28.2	-396.7	2.2
					CHANNELS 3  Xrotation Yrotation Zrotation
					JOINT right_ankle
					{
						OFFSET	11.7	-411.3	35.4
						CHANNELS 3  Xrotation Yrotation Zrotation
						JOINT right_toes
						{
							OFFSET	0	-60	-88.6
							CHANNELS 3  Xrotation Yrotation Zrotation
							JOINT right_foot_ee
							{
								OFFSET	22.5	-16.5	-42.2
								CHANNELS 3  Xrotation Yrotation Zrotation
								End Site
								{
									OFFSET	1	0	0
								}
							}
						}
					}
				}
			}
		}
	}
}
MOTION
Frames: 8
Frame Time: 0.02
3177.02 653.055 -1669.29 -2.25894841288 17.6869683171 2.26374966726 3.73575 0.123542 -1.55537 3.7324 -0.12362 -1.55537 -10.6557 21.222 11.231 -10.7547 32.7894 16.4299 -0.0 0.0 -0.0 -0.546466 15.7237 0.983059 -27.2038 -35.0794 71.8015 0.673792 -18.4579 0.109481 6.2182 0.177218 -0.774133 1.7523 -0.600936 11.548 -0.0 0.0 -0.0 10.0959 -4.81344 -19.5382 -15.9101 32.862 -51.9118 1.69656 40.0411 -0.618224 -57.6041 4.98638 -5.02036 -5.53639 -19.2091 26.4588 0.0 0.0 0.0 -3.73505 0.00331189 1.56027 -3.73639 0.102577 1.55689 26.6091 -28.4903 -13.2673 -0.781576 0.0313921 0.115833 11.1456 25.178 -1.6531 -23.3844 0.0 0.0 -0.0 0.0 -0.0 1.44926 21.2682 -4.79353 -21.2919 -0.278047 -3.23681 31.8857 -7.06442 4.08707 17.1335 -0.0 -0.0 0.0 0.0 0.0 
3157.57130983 651.309 -1685.19173735 -2.23175727896 16.8787759546 2.51720142702 3.52527 0.141664 -1.65804 3.52146 -0.121933 -1.6596 -10.7989 21.1568 11.512 -10.8863 32.5251 16.7125 -0.0 0.0 -0.0 -0.325176 15.5787 1.31551 -26.4545 -35.4043 71.4753 0.682705 -18.6852 0.11232 6.31679 0.179347 -0.786546 1.73537 -0.573949 11.4433 -0.0 0.0 -0.0 10.2504 -4.76729 -19.849 -17.0789 31.8829 -51.2256 1.67167 39.6249 -0.602286 -57.3718 4.95783 -5.01187 -5.47626 -18.4762 26.6051 0.0 0.0 0.0 -3.52447 0.00583253 1.66406 -3.526 0.111695 1.66032 26.1913 -29.33 -13.2219 -1.9564 0.0755954 0.290709 13.579 24.7471 -1.99303 -22.0699 0.0 0.0 -0.0 0.0 -0.0 1.19267 21.8619 -4.11444 -23.2626 -0.242648 -3.53712 31.3625 -7.21119 4.03288 17.4689 -0.0 -0.0 0.0 0.0 0.0 
3157.44395092 651.309 -1685.0346849 -2.23729205953 17.3395888703 2.5360146767 3.52527 0.141664 -1.65804 3.52146 -0.121933 -1.6596 -10.7989 21.1568 11.512 -10.8863 32.5251 16.7125 -0.0 0.0 -0.0 -0.325176 15.5787 1.31551 -26.4545 -35.4043 71.4753 0.682705 -18.6852 0.11232 6.31679 0.179347 -0.786546 1.73537 -0.573949 11.4433 -0.0 0.0 -0.0 10.2504 -4.76729 -19.849 -17.0789 31.8829 -51.2256 1.67167 39.6249 -0.602286 -57.3718 4.95783 -5.01187 -5.47626 -18.4762 26.6051 0.0 0.0 0.0 -3.52447 0.00583253 1.66406 -3.526 0.111695 1.66032 26.1913 -29.33 -13.2219 -1.9564 0.0755954 0.290709 13.579 24.7471 -1.99303 -22.0699 0.0 0.0 -0.0 0.0 -0.0 1.19267 21.8619 -4.11444 -23.2626 -0.242648 -3.53712 31.3625 -7.21119 4.03288 17.4689 -0.0 -0.0 0.0 0.0 0.0 
3157.3159604 651.309 -1684.8742107 -2.24308765225 17.8073788571 2.55520975107 3.52527 0.141664 -1.65804 3.52146 -0.121933 -1.6596 -10.7989 21.1568 11.512 -10.8863 32.5251 16.7125 -0.0 0.0 -0.0 -0.325176 15.5787 1.31551 -26.4545 -35.4043 71.4753 0.682705 -18.6852 0.11232 6.31679 0.179347 -0.786546 1.73537 -0.573949 11.4433 -0.0 0.0 -0.0 10.2504 -4.76729 -19.849 -17.0789 31.8829 -51.2256 1.67167 39.6249 -0.602286 -57.3718 4.95783 -5.01187 -5.47626 -18.4762 26.6051 0.0 0.0 0.0 -3.52447 0.00583253 1.66406 -3.526 0.111695 1.66032 26.1913 -29.33 -13.2219 -1.9564 0.0755954 0.290709 13.579 24.7471 -1.99303 -22.0699 0.0 0.0 -0.0 0.0 -0.0 1.19267 21.8619 -4.11444 -23.2626 -0.242648 -3.53712 31.3625 -7.21119 4.03288 17.4689 -0.0 -0.0 0.0 0.0 0.0 
3157.18445915 651.309 -1684.70648855 -2.2492962573 18.2930861106 2.57524698017 3.52527 0.141664 -1.65804 3.52146 -0.121933 -1.6596 -10.7989 21.1568 11.512 -10.8863 32.5251 16.7125 -0.0 0.0 -0.0 -0.325176 15.5787 1.31551 -26.4545 -35.4043 71.4753 0.682705 -18.6852 0.11232 6.31679 0.179347 -0.786546 1.73537 -0.573949 11.4433 -0.0 0.0 -0.0 10.2504 -4.76729 -19.849 -17.0789 31.8829 -51.2256 1.67167 39.6249 -0.602286 -57.3718 4.95783 -5.01187 -5.47626 -18.4762 26.6051 0.0 0.0 0.0 -3.52447 0.00583253 1.66406 -3.526 0.111695 1.66032 26.1913 -29.33 -13.2219 -1.9564 0.0755954 0.290709 13.579 24.7471 -1.99303 -22.0699 0.0 0.0 -0.0 0.0 -0.0 1.19267 21.8619 -4.11444 -23.2626 -0.242648 -3.53712 31.3625 -7.21119 4.03288 17.4689 -0.0 -0.0 0.0 0.0 0.0 
3134.29977403 653.324 -1700.59506817 -2.09747712761 16.3938113998 2.52611376789 3.38939 0.168879 -1.75834 3.38509 -0.110894 -1.76295 -10.6659 21.2017 11.4296 -10.7468 32.622 16.6093 -0.0 0.0 -0.0 -0.0705223 15.5202 1.71267 -25.4272 -35.708 71.9476 0.688017 -18.8204 0.114028 6.39485 0.181019 -0.796378 1.72937 -0.529865 11.4201 -0.0 0.0 -0.0 10.0594 -5.12488 -19.4408 -17.8757 31.0331 -51.1469 1.59251 38.2664 -0.552521 -56.9662 4.90805 -4.99676 -5.43616 -18.1277 26.592 0.0 0.0 0.0 -3.38848 -0.00399611 1.76643 -3.39021 0.108397 1.7631 26.038 -29.1 -12.235 -3.93557 0.141915 0.587199 14.4697 24.6582 -2.1161 -21.1828 0.0 0.0 -0.0 0.0 -0.0 1.37126 22.3182 -4.35498 -24.6157 -0.212367 -3.74256 31.2287 -7.39337 4.01917 17.8861 -0.0 -0.0 0.0 0.0 0.0 
3134.21857567 653.324 -1700.48395896 -2.09908847762 16.5425881608 2.53179787547 3.38939 0.168879 -1.75834 3.38509 -0.110894 -1.76295 -10.6659 21.2017 11.4296 -10.7468 32.622 16.6093 -0.0 0.0 -0.0 -0.0705223 15.5202 1.71267 -25.4272 -35.708 71.9476 0.688017 -18.8204 0.114028 6.39485 0.181019 -0.796378 1.72937 -0.529865 11.4201 -0.0 0.0 -0.0 10.0594 -5.12488 -19.4408 -17.8757 31.0331 -51.1469 1.59251 38.2664 -0.552521 -56.9662 4.90805 -4.99676 -5.43616 -18.1277 26.592 0.0 0.0 0.0 -3.38848 -0.00399611 1.76643 -3.39021 0.108397 1.7631 26.038 -29.1 -12.235 -3.93557 0.141915 0.587199 14.4697 24.6582 -2.1161 -21.1828 0.0 0.0 -0.0 0.0 -0.0 1.37126 22.3182 -4.35498 -24.6157 -0.212367 -3.74256 31.2287 -7.39337 4.01917 17.8861 -0.0 -0.0 0.0 0.0 0.0 
3134.26864926 653.324 -1700.55254963 -2.0980921457 16.4507777042 2.52828916937 3.38939 0.168879 -1.75834 3.38509 -0.110894 -1.76295 -10.6659 21.2017 11.4296 -10.7468 32.622 16.6093 -0.0 0.0 -0.0 -0.0705223 15.5202 1.71267 -25.4272 -35.708 71.9476 0.688017 -18.8204 0.114028 6.39485 0.181019 -0.796378 1.72937 -0.529865 11.4201 -0.0 0.0 -0.0 10.0594 -5.12488 -19.4408 -17.8757 31.0331 -51.1469 1.59251 38.2664 -0.552521 -56.9662 4.90805 -4.99676 -5.43616 -18.1277 26.592 0.0 0.0 0.0 -3.38848 -0.00399611 1.76643 -3.39021 0.108397 1.7631 26.038 -29.1 -12.235 -3.93557 0.141915 0.587199 14.4697 24.6582 -2.1161 -21.1828 0.0 0.0 -0.0 0.0 -0.0 1.37126 22.3182 -4.35498 -24.6157 -0.212367 -3.74256 31.2287 -7.39337 4.01917 17.8861 -0.0 -0.0 0.0 0.0 0.0 
